Full Credits To Feel Free :)

 ######## ######## ######## ##          ######## ########  ######## ######## 
 ##       ##       ##       ##          ##       ##     ## ##       ##       
 ##       ##       ##       ##          ##       ##     ## ##       ##       
 ######   ######   ######   ##          ######   ########  ######   ######   
 ##       ##       ##       ##          ##       ##   ##   ##       ##       
 ##       ##       ##       ##          ##       ##    ##  ##       ##       
 ##       ######## ######## ########    ##       ##     ## ######## ########


Genre:Action | Horror | Thriller 
 Language:English
 IMDb: 
http://www.imdb.com/title/tt1865567/
 Source:1080p.BluRay.x264-Japhson Thanks!

 Format : MPEG-4
 Format profile : Base Media
 Codec ID : isom
 File size : 2.16 GiB
 Duration : 1h 33mn
 Overall bit rate : 3 310 Kbps

 Video
 ID : 1
 Format : AVC
 Format/Info : Advanced Video Codec
 Format profile : High@L4.1
 Format settings, CABAC : Yes
 Format settings, ReFrames : 3 frames
 Format settings, GOP : N=1
 Codec ID : avc1
 Codec ID/Info : Advanced Video Coding
 Duration : 1h 33mn
 Bit rate mode : Variable
 Bit rate : 3 000 Kbps
 Maximum bit rate : 18.6 Mbps
 Width : 1 280 pixels
 Height : 720 pixels
 Display aspect ratio : 16:9
 Frame rate mode : Constant
 Frame rate : 23.976 fps
 Color space : YUV
 Chroma subsampling : 4:2:0
 Bit depth : 8 bits
 Scan type : Progressive
 Bits/(Pixel*Frame) : 0.136
 Stream size : 1.92 GiB (89%)
 Writing library : x264


 Audio
 ID : 2
 Format : AAC
 Format/Info : Advanced Audio Codec
 Format version : Version 4
 Format profile : LC
 Format settings, SBR : No
 Codec ID : 40
 Duration : 1h 33mn
 Bit rate mode : Variable
 Bit rate : 352.8 Kbps
 Maximum bit rate : 513 Kbps
 Channel(s) : 6 channels
 Channel positions : Front: L C R, Side: L R, LFE
 Sampling rate : 48.0 KHz
 Stream size : 238 MiB (11%)


 Plot:
 Follows a group of friends that decide to go snowmobiling during their winter break. They make a "wrong turn", getting lost in a storm.


Greets:

 INK,CRYS,IMAGINE,LKRG,FXG,3Li,FLAWL3SS,TA,iLLUSiON,ViSiON,DTRG 
 SAFCuk009,LU,TheFalcon007,MYSTiC,PrisM,Noir,WBZ,LAP,Rx,Kingdom,SAFCuk009+Fabreezy,
 HDLiTE,TWiZTED,ExtraTorrentRG.ELEKTRI4KA,MAGNAT,CM8
 And to all the other p2p grps past and present






==================================                                                   
http://thepiratebay.org/user/hiest
==================================






Screenshots:
      
http://www.pix2links.com/image/L8Qb9.png
 
http://www.pix2links.com/image/aHlPo.png
 
http://www.pix2links.com/image/3WITM.png
 
http://www.pix2links.com/image/RTren.png
 
http://www.pix2links.com/image/5o1nt.png


Full Credits To Feel Free :)

 ######## ######## ######## ##          ######## ########  ######## ######## 
 ##       ##       ##       ##          ##       ##     ## ##       ##       
 ##       ##       ##       ##          ##       ##     ## ##       ##       
 ######   ######   ######   ##          ######   ########  ######   ######   
 ##       ##       ##       ##          ##       ##   ##   ##       ##       
 ##       ##       ##       ##          ##       ##    ##  ##       ##       
 ##       ######## ######## ########    ##       ##     ## ######## ########